<svg xmlns="http://www.w3.org/2000/svg" viewBox="0 0 942.84 388.85"><defs><style>.cls-1{font-size:180px;font-family:Montserrat-Regular, Montserrat;}.cls-1,.cls-3,.cls-7{fill:#024959;}.cls-2{letter-spacing:-0.01em;}.cls-3{font-size:72px;font-family:Montserrat-Thin, Montserrat;font-weight:200;}.cls-4{letter-spacing:-0.01em;}.cls-5{letter-spacing:0.03em;}.cls-6{letter-spacing:0.04em;}.cls-8{fill:#bf3b3b;}.cls-9{fill:#f29f05;}</style></defs><g id="Layer_2" data-name="Layer 2"><g id="Layer_16" data-name="Layer 16"><text class="cls-1" transform="translate(477.55 235.32)">O<tspan class="cls-2" x="151.02" y="0">r</tspan><tspan x="221.76" y="0">bit</tspan></text><text class="cls-3" transform="translate(490.92 312.64)">D<tspan class="cls-4" x="59.47" y="0">e</tspan><tspan class="cls-5" x="101.01" y="0">v</tspan><tspan class="cls-6" x="139.54" y="0">S</tspan><tspan x="185.47" y="0">tudio</tspan></text></g><g id="Layer_4" data-name="Layer 4"><path class="cls-7" d="M348.66,304.84a187.12,187.12,0,0,1-43.87,46.36c-4.26,3.25-8.78,6.14-13.26,9.09l-6.93,4.11c-1.15.71-2.35,1.29-3.54,1.93l-3.56,1.87a192.75,192.75,0,0,1-29.85,12.2,189.74,189.74,0,0,1-64,8.3c-2.7-.17-5.41-.26-8.11-.5l-8.09-.84-8-1.22c-2.68-.44-5.33-1-8-1.56A194.17,194.17,0,0,1,120.29,375a189.2,189.2,0,0,1-55.43-34.31,183.91,183.91,0,0,1-22.6-23.83A203.22,203.22,0,0,1,24,289.53,195.13,195.13,0,0,1,2.44,227.26,195.74,195.74,0,0,1,26.1,98.58c1.45-2.4,2.82-4.83,4.33-7.19l4.64-7,5-6.77c.81-1.15,1.72-2.22,2.6-3.3l2.66-3.26A201.27,201.27,0,0,1,68.93,47.18l6.53-5.33c2.24-1.7,4.51-3.35,6.77-5l1.7-1.24,1.75-1.16L89.2,32.1c1.18-.77,2.33-1.57,3.53-2.31l3.63-2.15a193.32,193.32,0,0,1,30.41-14.72A199.49,199.49,0,0,1,193.12,0,200.15,200.15,0,0,1,320.45,42.41a199.26,199.26,0,0,1,25.14,23.46l2.89,3.2c1,1.07,1.84,2.21,2.76,3.31L354,75.72l1.37,1.67c.44.56.85,1.15,1.28,1.72l5.11,7,2.42,3.57c.8,1.19,1.57,2.41,2.35,3.61A202.19,202.19,0,0,1,393,156.88l-31.31,6.63A170.9,170.9,0,0,0,340.94,109l-1.9-3.15-2-3.11-4.18-6.07c-.35-.51-.69-1-1.05-1.52l-1.12-1.46-2.25-2.93c-.75-1-1.46-2-2.26-2.91L323.81,85a171.9,171.9,0,0,0-20.92-20.79,175.92,175.92,0,0,0-51.17-29.49A178.57,178.57,0,0,0,193.26,24a176.37,176.37,0,0,0-59,9.56,171.91,171.91,0,0,0-27.49,12.27l-3.31,1.82c-1.1.62-2.15,1.31-3.23,2l-3.21,2-1.62,1L93.89,53.7,87.66,58l-6,4.61a182.5,182.5,0,0,0-22,20.84l-2.49,2.86c-.83,1-1.68,1.9-2.44,2.91l-4.68,6-4.4,6.2c-1.43,2.09-2.74,4.26-4.12,6.39a179.84,179.84,0,0,0-22.71,56.37A179.18,179.18,0,0,0,34.54,283.89a183.45,183.45,0,0,0,37.07,49.45,179.94,179.94,0,0,0,51.77,34.31A186.8,186.8,0,0,0,153,377.76c2.56.58,5.09,1.25,7.66,1.74l7.72,1.43,7.79,1.05c2.61.32,5.22.48,7.84.73a184.62,184.62,0,0,0,62.5-6.15,188.79,188.79,0,0,0,29.65-11.05l3.57-1.73c1.18-.59,2.39-1.13,3.54-1.8l7-3.83c4.51-2.77,9.07-5.49,13.39-8.57A186.17,186.17,0,0,0,348.66,304.84Z"/><circle class="cls-8" cx="378.91" cy="165.53" r="45.5"/><circle class="cls-9" cx="160.41" cy="224.03" r="114"/></g></g></svg>