<svg xmlns="http://www.w3.org/2000/svg" viewBox="0 0 371.64 377.63"><defs><style>.cls-1{fill:#024959;}.cls-2{fill:#f29f05;}</style></defs><g id="Layer_2" data-name="Layer 2"><g id="Layer_16" data-name="Layer 16"><path class="cls-1" d="M331.79,310.56A187.68,187.68,0,0,1,285,350.61a195.07,195.07,0,0,1-27.67,13.81,186.42,186.42,0,0,1-29.61,9,188.53,188.53,0,0,1-121-14.25A180.34,180.34,0,0,1,80,343.42a186.74,186.74,0,0,1-23.85-19.91,202.27,202.27,0,0,1-20.25-23.58,189.86,189.86,0,0,1-16.12-26.6A187.28,187.28,0,0,1,1.59,214,183.05,183.05,0,0,1,.12,182.86a195.49,195.49,0,0,1,3.57-31,191.68,191.68,0,0,1,8.7-30A184.75,184.75,0,0,1,25.84,93.73a191.11,191.11,0,0,1,93.24-80.25,192.37,192.37,0,0,1,30-9.14A184.69,184.69,0,0,1,180.13.21a196.75,196.75,0,0,1,31.36,1.06l3.89.49c1.3.17,2.6.31,3.89.56L227,3.68l7.66,1.72c2.56.6,5.06,1.36,7.59,2a195.4,195.4,0,0,1,29.38,11.13,183.24,183.24,0,0,1,27.13,15.88,191.31,191.31,0,0,1,72.87,100.11L364,136.87a183.86,183.86,0,0,0-69.25-96.71,181.84,181.84,0,0,0-54.29-26.48c-2.44-.67-4.85-1.44-7.31-2l-7.4-1.72-7.47-1.38c-1.24-.25-2.5-.4-3.75-.57l-3.77-.5A191,191,0,0,0,180.4,6.2,178.83,178.83,0,0,0,150.26,10,185.22,185.22,0,0,0,29.72,96a181.42,181.42,0,0,0-13.37,27.42,188.44,188.44,0,0,0-8.74,29.25A192.07,192.07,0,0,0,3.86,183a181.37,181.37,0,0,0,1.2,30.55,185.42,185.42,0,0,0,33,84.77,199.28,199.28,0,0,0,19.79,23.42,184.57,184.57,0,0,0,23.38,19.85,178.31,178.31,0,0,0,26.33,15.75,187.27,187.27,0,0,0,149.5,6.38,193.65,193.65,0,0,0,27.68-13.54A187.33,187.33,0,0,0,331.79,310.56Z"/><circle class="cls-2" cx="126.81" cy="193" r="59"/></g></g></svg>