<svg width="425" height="386" viewBox="0 0 425 386" fill="none" xmlns="http://www.w3.org/2000/svg">
<path d="M242.7 339.8C283.4 339.8 316.4 306.8 316.4 266.1C316.4 225.4 283.4 192.4 242.7 192.4C202 192.4 169 225.4 169 266.1C169 306.8 202 339.8 242.7 339.8Z" fill="#F26716"/>
<path d="M253 226.4C306.6 226.4 350 183 350 129.4C350 75.8 306.6 32.4 253 32.4C199.4 32.4 156 75.8 156 129.4C156 183 199.4 226.4 253 226.4Z" fill="#F29F05"/>
<path d="M113 309.4C175.4 309.4 226 258.8 226 196.4C226 134 175.4 83.4 113 83.4C50.6 83.4 0 134 0 196.4C0 258.8 50.6 309.4 113 309.4Z" fill="#BF3B3B"/>
<path d="M315 279.3C375.7 279.3 425 230.1 425 169.3C425 108.6 375.8 59.3 315 59.3C254.3 59.3 205 108.5 205 169.3C205 230.1 254.2 279.3 315 279.3Z" fill="#F28907"/>
<path d="M288.4 385.4C303.1 385.4 314.9 373.5 314.9 358.9C314.9 344.2 303 332.4 288.4 332.4C273.7 332.4 261.9 344.3 261.9 358.9C261.9 373.5 273.8 385.4 288.4 385.4Z" fill="#F28907"/>
<path d="M146.2 67.6C152.2 67.6 157.1 62.7 157.1 56.7C157.1 50.7 152.2 45.8 146.2 45.8C140.2 45.8 135.3 50.7 135.3 56.7C135.3 62.7 140.1 67.6 146.2 67.6Z" fill="#F26716"/>
<path d="M253.5 83.2001C268.2 83.2001 280 71.3001 280 56.7001C280 42.1001 268.1 30.2001 253.5 30.2001C238.8 30.2001 227 42.1001 227 56.7001C227 71.3001 238.8 83.2001 253.5 83.2001Z" fill="#F26716"/>
<path d="M211.5 365.4C215.1 365.4 218 362.5 218 358.9C218 355.3 215.1 352.4 211.5 352.4C207.9 352.4 205 355.3 205 358.9C205 362.5 207.9 365.4 211.5 365.4Z" fill="#F26716"/>
<path d="M169.5 96.4C173.1 96.4 176 93.5 176 89.9C176 86.3 173.1 83.4 169.5 83.4C165.9 83.4 163 86.3 163 89.9C163 93.5 165.9 96.4 169.5 96.4Z" fill="#F28907"/>
<path d="M135.3 329.7C144.3 329.7 151.5 322.4 151.5 313.5C151.5 304.5 144.2 297.3 135.3 297.3C126.3 297.3 119.1 304.6 119.1 313.5C119 322.4 126.3 329.7 135.3 329.7Z" fill="#F29F05"/>
<path d="M315 32.4C324 32.4 331.2 25.1 331.2 16.2C331.2 7.2 323.9 0 315 0C306 0 298.8 7.3 298.8 16.2C298.8 25.1 306 32.4 315 32.4Z" fill="#F26716"/>
</svg>
